<?xml version="1.0" encoding="UTF-8"?>
 <!DOCTYPE svg PUBLIC "-//W3C//DTD SVG 1.1//EN"
   "http://www.w3.org/Graphics/SVG/1.1/DTD/svg11.dtd">
 <svg xmlns="http://www.w3.org/2000/svg" version="1.1"
   xmlns:xlink="http://www.w3.org/1999/xlink" width="128" height="128">
  <defs>
    <radialGradient cx="501.06299" cy="544.8363" r="25.502291" fx="501.06299" fy="544.8363" id="radialGradient19" gradientUnits="userSpaceOnUse" gradientTransform="matrix(1.3617021,0,0,1.262592,-638.61982,-603.67274)" >
	  <stop style="stop-color:#ffff00" offset="0" />
      <stop style="stop-color:#ff9c00" offset="0.45" />
      <stop style="stop-color:#ff9c00" offset="1" />
	</radialGradient>
  </defs>
  <rect width="125" height="125" x="1.5" y="1.5" id="rect2174" fill="#0a1831" stroke="#dc9b0f" stroke-width="3" />
  <path d="M 53.849343,17.225188 C 50.182565,18.983895 51.734007,23.996511 51.734007,23.996511 54.671947,32.148722 58.198211,37.318602 62.571345,42.323388 67.248179,47.906843 76.02168,53.026884 83.81383,56.7659 85.226868,57.443933 86.356005,57.855929 87.233908,59.010135 89.987923,62.630901 93.30168,66.245444 101.36651,70.834026 104.47262,72.996164 105.66012,72.324613 105.8772,70.709907 L 106.09354,60.345025 C 110.26033,60.664276 112.93998,59.610796 109.79264,53.178537 L 118.04274,53.217713 C 119.88051,53.105781 121.59615,51.201563 118.0607,48.493601 L 105.71061,38.749056 99.22138,38.000869 C 90.716597,29.362789 83.968124,20.599936 66.401132,16.961685 66.401132,16.961685 57.516134,15.466482 53.849343,17.225188 z M 62.465745,21.770237 C 64.697248,22.131524 65.929819,22.208705 69.337248,23.558642 73.3001,25.128616 74.383961,25.231956 79.395202,29.161257 83.943014,32.727173 85.316686,34.830758 89.398225,38.98252 93.479763,43.134282 92.640737,42.400596 95.806354,46.27837 98.971971,50.156144 102.06071,54.493601 102.06071,54.493601 L 101.59311,55.848004 99.36346,56.460157 99.060087,61.624916 C 96.642371,61.099844 94.57095,59.18958 92.462477,57.427565 L 91.11913,54.597499 87.051154,53.448699 C 87.051154,53.448699 78.940189,48.471664 73.820243,44.700974 68.700298,40.930285 68.532958,40.590962 66.656356,38.620974 64.365292,36.215882 64.01001,35.750493 61.850827,32.441829 59.691644,29.133151 57.934626,25.131258 57.934626,25.131258 55.673561,21.205948 57.445217,21.212402 62.465745,21.770237 z" fill="#92d6f3" />
  <path d="M 77.539583,33.944807 C 77.539583,36.478418 75.523746,38.532327 73.037088,38.532327 70.550415,38.532327 68.534579,36.478418 68.534579,33.944807 68.534579,31.411197 70.550415,29.357287 73.037088,29.357287 75.523746,29.357287 77.539583,31.411197 77.539583,33.944807 z" fill="#92d6f3" />
  <path d="M 54.22604,99.056846 57.881012,106.86069 51.44298,110.57769 47.148661,100.90192 47.169087,115.88759 39.586503,115.76723 39.692566,100.65159 35.494302,109.7493 29.1153,106.98105 32.214329,100.07184 22.856658,108.66608 17.560876,103.3703 29.761809,92.276835 17.921945,97.232001 15.755491,91.334429 24.768665,88.039627 9.496849,88.205115 9.496849,80.141087 22.04443,80.014231 15.556097,77.336689 17.320154,70.753118 26.75178,74.230851 17.079446,65.457336 21.773424,59.920846 32.459871,69.903933 29.476382,62.809452 35.614663,59.319041 39.494574,67.284536 39.586503,52.57897 47.169087,52.57897 47.255255,67.631089 50.53339,59.340488 57.64029,61.627766 54.222186,69.517455 63.898932,59.680124 70.398295,65.096253 61.52603,73.415355 68.352202,70.753118 71.650108,76.465254 62.221751,80.170269 77.860532,80.141087 77.860532,88.325475 63.20957,88.202881 70.518656,90.97336 68.592923,97.713445 59.176808,94.123235 70.037226,103.73136 64.861805,108.90679 54.400256,99.393881" fill="url(#radialGradient19)" stroke="#0a1831" />
 </svg>