<?xml version="1.0" encoding="UTF-8" standalone="no"?>
<!-- Created with Inkscape (http://www.inkscape.org/) -->

<svg
   xmlns:dc="http://purl.org/dc/elements/1.1/"
   xmlns:cc="http://creativecommons.org/ns#"
   xmlns:rdf="http://www.w3.org/1999/02/22-rdf-syntax-ns#"
   xmlns:svg="http://www.w3.org/2000/svg"
   xmlns="http://www.w3.org/2000/svg"
   xmlns:xlink="http://www.w3.org/1999/xlink"
   xmlns:sodipodi="http://sodipodi.sourceforge.net/DTD/sodipodi-0.dtd"
   xmlns:inkscape="http://www.inkscape.org/namespaces/inkscape"
   width="561.64484"
   height="529.31995"
   id="svg2"
   version="1.1"
   inkscape:version="0.48.1 r9760"
   sodipodi:docname="Royaume_de_Coupes_logo.svg">
  <defs
     id="defs4" />
  <sodipodi:namedview
     id="base"
     pagecolor="#ffffff"
     bordercolor="#666666"
     borderopacity="1.0"
     inkscape:pageopacity="0.0"
     inkscape:pageshadow="2"
     inkscape:zoom="0.98994949"
     inkscape:cx="290.34005"
     inkscape:cy="256.04635"
     inkscape:document-units="px"
     inkscape:current-layer="layer1"
     showgrid="false"
     inkscape:window-width="1366"
     inkscape:window-height="714"
     inkscape:window-x="0"
     inkscape:window-y="24"
     inkscape:window-maximized="1"
     fit-margin-top="0"
     fit-margin-left="0"
     fit-margin-right="0"
     fit-margin-bottom="0" />
  <metadata
     id="metadata7">
    <rdf:RDF>
      <cc:Work
         rdf:about="">
        <dc:format>image/svg+xml</dc:format>
        <dc:type
           rdf:resource="http://purl.org/dc/dcmitype/StillImage" />
        <dc:title></dc:title>
      </cc:Work>
    </rdf:RDF>
  </metadata>
  <g
     inkscape:label="Calque 1"
     inkscape:groupmode="layer"
     id="layer1"
     transform="translate(-88.248756,-191.71222)">
    <g
       id="g4072"
       inkscape:export-filename="/home/martin/Jeu de Rôle/Mes Murders/Alice au Pays des merveilles/images/Royaume_de_Coupes_logo.png"
       inkscape:export-xdpi="200"
       inkscape:export-ydpi="200">
      <rect
         y="191.71222"
         x="88.248756"
         height="529.31995"
         width="561.64484"
         id="rect4043"
         style="color:#000000;fill:#000080;fill-opacity:1;fill-rule:nonzero;stroke:none;stroke-width:2;marker:none;visibility:visible;display:inline;overflow:visible;enable-background:accumulate" />
      <g
         id="g4045">
        <path
           style="fill:#80e5ff;fill-rule:evenodd;stroke:#000080;stroke-width:1px;stroke-linecap:butt;stroke-linejoin:miter;stroke-opacity:1"
           d="m 282.86812,450.45339 c 0,111.02048 50.22513,206.07112 98.48988,206.07112 -47.69976,0 -172.23102,-89.99988 -172.23102,-201.02036 0,-111.02048 124.53126,-201.02035 172.23102,-201.02035 -48.26475,0 -98.48988,84.94911 -98.48988,195.96959 z"
           id="path4038"
           inkscape:connector-curvature="0"
           sodipodi:nodetypes="scscs" />
        <path
           sodipodi:type="star"
           style="color:#000000;fill:#d5f6ff;fill-opacity:1;fill-rule:nonzero;stroke:#000080;stroke-width:2;stroke-linecap:butt;stroke-linejoin:miter;stroke-miterlimit:4;stroke-opacity:1;stroke-dasharray:none;stroke-dashoffset:0;marker:none;visibility:visible;display:inline;overflow:visible;enable-background:accumulate"
           id="path4041"
           sodipodi:sides="5"
           sodipodi:cx="544.47223"
           sodipodi:cy="515.97119"
           sodipodi:r1="90.49749"
           sodipodi:r2="23.687588"
           sodipodi:arg1="-2.1495113"
           sodipodi:arg2="-1.5045791"
           inkscape:flatsided="false"
           inkscape:rounded="0"
           inkscape:randomized="0"
           d="m 494.97475,440.20975 51.06486,52.12577 55.19047,-46.8508 -33.79464,64.67331 61.61254,38.01157 -71.95109,-12.15546 -17.11182,70.34323 -10.67358,-72.1858 -72.18823,5.46295 65.35445,-32.45782 z"
           inkscape:transform-center-x="7.331452"
           inkscape:transform-center-y="-1.3668953"
           transform="matrix(-0.95083818,0.30968817,-0.30968817,-0.95083818,1148.5511,831.79725)" />
        <g
           id="g4014">
          <g
             id="g3883">
            <path
               style="color:#000000;fill:#0000ff;fill-opacity:1;fill-rule:nonzero;stroke:#000080;stroke-width:2;stroke-linecap:butt;stroke-linejoin:miter;stroke-miterlimit:4;stroke-opacity:1;stroke-dasharray:none;stroke-dashoffset:0;marker:none;visibility:visible;display:inline;overflow:visible;enable-background:accumulate"
               d="m 373.97603,572.09604 -55.71428,0 -1e-5,-4.28571 c 13.63019,-10.85796 22.73167,-11.29987 34.08354,-16.91768 0,0 -9.31732,-6.19342 -9.28867,-7.58109 0.0287,-1.38767 11.64115,-8.72603 11.64115,-8.72603 0,0 -16.64707,-16.62518 -13.9687,-26.13222 1.67902,-5.9598 16.02052,-9.40148 16.02052,-9.40148 l -27.80716,-21.86956 c 0,0 -69.22664,-4.34106 -93.01438,-13.1188 -23.78775,-8.77773 -49.09487,-31.25314 -49.09487,-31.25314 0,-18.99429 135.30429,-34.28572 187.14286,-34.28572"
               id="rect2985"
               inkscape:connector-curvature="0"
               sodipodi:nodetypes="cccczcscczcc" />
            <path
               style="color:#000000;fill:#0000ff;fill-opacity:1;fill-rule:nonzero;stroke:#000080;stroke-width:2;stroke-linecap:butt;stroke-linejoin:miter;stroke-miterlimit:4;stroke-opacity:1;stroke-dasharray:none;stroke-dashoffset:0;marker:none;visibility:visible;display:inline;overflow:visible;enable-background:accumulate"
               d="m 373.53833,572.09604 55.71428,0 10e-6,-4.28571 c -13.63019,-10.85796 -22.73167,-11.29987 -34.08354,-16.91768 0,0 9.31732,-6.19342 9.28867,-7.58109 -0.0287,-1.38767 -11.64115,-8.72603 -11.64115,-8.72603 0,0 16.64707,-16.62518 13.9687,-26.13222 -1.67902,-5.9598 -16.02052,-9.40148 -16.02052,-9.40148 l 27.80716,-21.86956 c 0,0 69.22664,-4.34106 93.01438,-13.1188 23.78775,-8.77773 49.09487,-31.25314 49.09487,-31.25314 0,-18.99429 -135.30429,-34.28572 -187.14286,-34.28572"
               id="rect2985-3"
               inkscape:connector-curvature="0"
               sodipodi:nodetypes="cccczcscczcc" />
            <path
               transform="translate(12.626907,12.626907)"
               d="m 465.17526,441.97751 c 0,12.41309 -47.26124,22.47589 -105.56094,22.47589 -58.2997,0 -105.56094,-10.0628 -105.56094,-22.47589 0,-12.4131 47.26124,-22.4759 105.56094,-22.4759 58.2997,0 105.56094,10.0628 105.56094,22.4759 z"
               sodipodi:ry="22.475895"
               sodipodi:rx="105.56094"
               sodipodi:cy="441.97751"
               sodipodi:cx="359.61432"
               id="path3894"
               style="fill:#0066ff;fill-rule:evenodd;stroke:#000080;stroke-width:1px;stroke-linecap:butt;stroke-linejoin:miter;stroke-opacity:1"
               sodipodi:type="arc" />
            <path
               style="color:#000000;fill:#00ffff;fill-opacity:1;fill-rule:nonzero;stroke:#000080;stroke-width:2;stroke-linecap:butt;stroke-linejoin:miter;stroke-miterlimit:4;stroke-opacity:1;stroke-dasharray:none;stroke-dashoffset:0;marker:none;visibility:visible;display:inline;overflow:visible;enable-background:accumulate"
               d="m 373.97603,572.09604 -55.71428,0 -1e-5,-4.28571 c 13.63019,-10.85796 22.73167,-11.29987 34.08354,-16.91768 0,0 -9.31732,-6.19342 -9.28867,-7.58109 0.0287,-1.38767 11.64115,-8.72603 11.64115,-8.72603 0,0 -16.64707,-16.62518 -13.9687,-26.13222 1.67902,-5.9598 16.02052,-9.40148 16.02052,-9.40148 l -27.80716,-21.86956 c 0,0 -69.22664,-4.34106 -93.01438,-13.1188 -23.78775,-8.77773 -49.09487,-31.25314 -49.09487,-31.25314 20.71429,19.93428 135.30429,38.92857 187.14286,38.92857"
               id="rect2985-5"
               inkscape:connector-curvature="0"
               sodipodi:nodetypes="cccczcscczcc" />
            <path
               style="fill:none;stroke:#000080;stroke-width:2;stroke-linecap:butt;stroke-linejoin:miter;stroke-miterlimit:4;stroke-opacity:1;stroke-dasharray:none"
               d="m 318.39286,568.25504 55.80357,0"
               id="path3042"
               inkscape:connector-curvature="0"
               sodipodi:nodetypes="cc" />
            <rect
               style="color:#000000;fill:#808000;fill-opacity:1;fill-rule:nonzero;stroke:none;stroke-width:2;marker:none;visibility:visible;display:inline;overflow:visible;enable-background:accumulate"
               id="rect3812"
               width="55.178562"
               height="2.3214548"
               x="318.83929"
               y="569.14789" />
            <path
               style="color:#000000;fill:#00ffff;fill-opacity:1;fill-rule:nonzero;stroke:#000080;stroke-width:2;stroke-linecap:butt;stroke-linejoin:miter;stroke-miterlimit:4;stroke-opacity:1;stroke-dasharray:none;stroke-dashoffset:0;marker:none;visibility:visible;display:inline;overflow:visible;enable-background:accumulate"
               d="m 373.53833,572.09604 55.71428,0 10e-6,-4.28571 c -13.63019,-10.85796 -22.73167,-11.29987 -34.08354,-16.91768 0,0 9.31732,-6.19342 9.28867,-7.58109 -0.0287,-1.38767 -11.64115,-8.72603 -11.64115,-8.72603 0,0 16.64707,-16.62518 13.9687,-26.13222 -1.67902,-5.9598 -16.02052,-9.40148 -16.02052,-9.40148 l 27.80716,-21.86956 c 0,0 69.22664,-4.34106 93.01438,-13.1188 23.78775,-8.77773 49.09487,-31.25314 49.09487,-31.25314 C 539.9669,452.74461 425.3769,471.7389 373.53833,471.7389"
               id="rect2985-5-8"
               inkscape:connector-curvature="0"
               sodipodi:nodetypes="cccczcscczcc" />
            <path
               style="fill:none;stroke:#000080;stroke-width:2;stroke-linecap:butt;stroke-linejoin:miter;stroke-miterlimit:4;stroke-opacity:1;stroke-dasharray:none"
               d="m 429.1215,568.25504 -55.80357,0"
               id="path3042-7"
               inkscape:connector-curvature="0"
               sodipodi:nodetypes="cc" />
            <rect
               style="color:#000000;fill:#808000;fill-opacity:1;fill-rule:nonzero;stroke:none;stroke-width:2;marker:none;visibility:visible;display:inline;overflow:visible;enable-background:accumulate"
               id="rect3812-3"
               width="55.178562"
               height="2.3214548"
               x="-428.67508"
               y="569.14789"
               transform="scale(-1,1)" />
            <path
               inkscape:connector-curvature="0"
               id="path3862"
               d="m 373.5039,566.85761 0,-93.81791"
               style="fill:none;stroke:#00ffff;stroke-width:1px;stroke-linecap:butt;stroke-linejoin:miter;stroke-opacity:1" />
          </g>
          <path
             transform="matrix(0.91737131,0.39803251,-0.39803251,0.91737131,199.11276,-71.296364)"
             inkscape:transform-center-y="0.39381795"
             inkscape:transform-center-x="-0.41889645"
             d="m 302.03562,436.67422 -4.82069,-2.25022 -5.04529,1.68743 0.65041,-5.28009 -3.16393,-4.27692 5.22266,-1.01306 3.08988,-4.33071 2.57737,4.65399 5.07358,1.60038 -3.62976,3.88939 z"
             inkscape:randomized="0"
             inkscape:rounded="0"
             inkscape:flatsided="false"
             sodipodi:arg2="1.6277774"
             sodipodi:arg1="0.99945885"
             sodipodi:r2="4.8286867"
             sodipodi:r1="8.4061441"
             sodipodi:cy="429.60315"
             sodipodi:cx="297.48993"
             sodipodi:sides="5"
             id="path3898"
             style="color:#000000;fill:#ffffff;fill-opacity:1;fill-rule:nonzero;stroke:#000080;stroke-width:2;stroke-linecap:butt;stroke-linejoin:miter;stroke-miterlimit:4;stroke-opacity:1;stroke-dasharray:none;stroke-dashoffset:0;marker:none;visibility:visible;display:inline;overflow:visible;enable-background:accumulate"
             sodipodi:type="star" />
          <use
             transform="translate(122.10933,-23.104593)"
             height="1052.3622"
             width="744.09448"
             y="0"
             x="0"
             xlink:href="#path3898"
             id="use3900" />
          <use
             transform="translate(43.302532,-51.268726)"
             height="1052.3622"
             width="744.09448"
             y="0"
             x="0"
             xlink:href="#path3898"
             id="use3956" />
          <use
             transform="translate(71.343559,-68.871063)"
             height="1052.3622"
             width="744.09448"
             y="0"
             x="0"
             xlink:href="#path3898"
             id="use3958" />
          <use
             transform="translate(88.970554,-86.792255)"
             height="1052.3622"
             width="744.09448"
             y="0"
             x="0"
             xlink:href="#path3898"
             id="use3960" />
          <use
             transform="translate(135.35001,-21.430448)"
             height="1052.3622"
             width="744.09448"
             y="0"
             x="0"
             xlink:href="#path3898"
             id="use3962" />
          <use
             transform="translate(94.746679,15.295762)"
             height="1052.3622"
             width="744.09448"
             y="0"
             x="0"
             xlink:href="#path3898"
             id="use3964" />
          <use
             transform="translate(99.681432,-62.565193)"
             height="1052.3622"
             width="744.09448"
             y="0"
             x="0"
             xlink:href="#path3898"
             id="use3966" />
          <use
             transform="translate(89.762236,-13.125549)"
             height="1052.3622"
             width="744.09448"
             y="0"
             x="0"
             xlink:href="#path3898"
             id="use3968" />
          <use
             transform="translate(46.684526,-3.1543828)"
             height="1052.3622"
             width="744.09448"
             y="0"
             x="0"
             xlink:href="#path3898"
             id="use4008" />
          <use
             transform="translate(69.580241,-38.458148)"
             height="1052.3622"
             width="744.09448"
             y="0"
             x="0"
             xlink:href="#path3898"
             id="use4010" />
        </g>
      </g>
    </g>
  </g>
</svg>
